<svg width="32" height="32" viewBox="0 0 32 32" fill="none" xmlns="http://www.w3.org/2000/svg">
<path opacity="0.2" d="M28 10L16 17L4 10L16 3L28 10Z" fill="#397AC4"/>
<path d="M30 25C30 25.2652 29.8946 25.5196 29.7071 25.7071C29.5196 25.8947 29.2652 26 29 26H27V28C27 28.2652 26.8946 28.5196 26.7071 28.7071C26.5196 28.8947 26.2652 29 26 29C25.7348 29 25.4804 28.8947 25.2929 28.7071C25.1054 28.5196 25 28.2652 25 28V26H23C22.7348 26 22.4804 25.8947 22.2929 25.7071C22.1054 25.5196 22 25.2652 22 25C22 24.7348 22.1054 24.4805 22.2929 24.2929C22.4804 24.1054 22.7348 24 23 24H25V22C25 21.7348 25.1054 21.4805 25.2929 21.2929C25.4804 21.1054 25.7348 21 26 21C26.2652 21 26.5196 21.1054 26.7071 21.2929C26.8946 21.4805 27 21.7348 27 22V24H29C29.2652 24 29.5196 24.1054 29.7071 24.2929C29.8946 24.4805 30 24.7348 30 25ZM27.5 15.1363L16 21.8425L4.5 15.1363C4.27231 15.0229 4.00997 15.0006 3.76638 15.0738C3.5228 15.147 3.31627 15.3103 3.18884 15.5305C3.06141 15.7506 3.02266 16.011 3.08046 16.2587C3.13827 16.5064 3.28829 16.7228 3.5 16.8638L15.5 23.8638C15.6529 23.9529 15.8267 23.9999 16.0037 23.9999C16.1808 23.9999 16.3546 23.9529 16.5075 23.8638L28.5075 16.8638C28.6228 16.7986 28.7239 16.7111 28.8051 16.6065C28.8863 16.5019 28.9459 16.3822 28.9804 16.2543C29.015 16.1265 29.0238 15.9931 29.0064 15.8618C28.9889 15.7305 28.9456 15.604 28.8789 15.4896C28.8122 15.3752 28.7234 15.2752 28.6177 15.1954C28.5121 15.1156 28.3916 15.0576 28.2633 15.0247C28.135 14.9918 28.0015 14.9848 27.8705 15.0039C27.7394 15.0231 27.6135 15.0681 27.5 15.1363ZM3 10C3.0004 9.82487 3.04679 9.6529 3.13454 9.50131C3.22229 9.34973 3.34831 9.22385 3.5 9.13627L15.5 2.13627C15.6529 2.04711 15.8267 2.00012 16.0037 2.00012C16.1808 2.00012 16.3546 2.04711 16.5075 2.13627L28.5075 9.13627C28.6585 9.22434 28.7837 9.35044 28.8707 9.50199C28.9578 9.65354 29.0036 9.82525 29.0036 10C29.0036 10.1748 28.9578 10.3465 28.8707 10.4981C28.7837 10.6496 28.6585 10.7757 28.5075 10.8638L16.5075 17.8638C16.3546 17.9529 16.1808 17.9999 16.0037 17.9999C15.8267 17.9999 15.6529 17.9529 15.5 17.8638L3.5 10.8638C3.34831 10.7762 3.22229 10.6503 3.13454 10.4987C3.04679 10.3471 3.0004 10.1752 3 10ZM5.985 10L16 15.8425L26.015 10L16 4.15752L5.985 10ZM17.5 26.97L16 27.845L4.5 21.1363C4.27231 21.0229 4.00997 21.0006 3.76638 21.0738C3.5228 21.147 3.31627 21.3103 3.18884 21.5305C3.06141 21.7506 3.02266 22.011 3.08046 22.2587C3.13827 22.5064 3.28829 22.7228 3.5 22.8638L15.5 29.8638C15.6529 29.9529 15.8267 29.9999 16.0037 29.9999C16.1808 29.9999 16.3546 29.9529 16.5075 29.8638L18.5075 28.6975C18.6228 28.6323 18.7239 28.5449 18.8051 28.4402C18.8863 28.3356 18.9459 28.2159 18.9804 28.0881C19.015 27.9602 19.0238 27.8268 19.0064 27.6955C18.9889 27.5643 18.9456 27.4378 18.8789 27.3234C18.8122 27.209 18.7234 27.109 18.6177 27.0292C18.5121 26.9494 18.3916 26.8913 18.2633 26.8585C18.135 26.8256 18.0015 26.8185 17.8705 26.8377C17.7394 26.8568 17.6135 26.9018 17.5 26.97Z" fill="#397AC4"/>
</svg>
