<svg width="32" height="32" viewBox="0 0 32 32" fill="none" xmlns="http://www.w3.org/2000/svg">
<path opacity="0.2" d="M30 13L16 21L2 13L16 5L30 13Z" fill="#397AC4"/>
<path d="M1.49994 13.875L15.4999 21.875C15.6511 21.9614 15.8221 22.0068 15.9962 22.0068C16.1703 22.0068 16.3413 21.9614 16.4924 21.875L30.4924 13.875C30.6457 13.7876 30.7732 13.6612 30.8618 13.5086C30.9505 13.356 30.9972 13.1827 30.9972 13.0062C30.9972 12.8298 30.9505 12.6565 30.8618 12.5039C30.7732 12.3513 30.6457 12.2249 30.4924 12.1375L16.4924 4.1375C16.3413 4.05111 16.1703 4.00568 15.9962 4.00568C15.8221 4.00568 15.6511 4.05111 15.4999 4.1375L1.49994 12.1375C1.34664 12.2249 1.21919 12.3513 1.13054 12.5039C1.04189 12.6565 0.995194 12.8298 0.995194 13.0062C0.995194 13.1827 1.04189 13.356 1.13054 13.5086C1.21919 13.6612 1.34664 13.7876 1.49994 13.875ZM15.9999 6.15125L27.9837 13L15.9999 19.8487L4.01619 13L15.9999 6.15125ZM30.8749 17.5C30.9416 17.6146 30.9849 17.7414 31.0021 17.8729C31.0194 18.0044 31.0103 18.1381 30.9754 18.266C30.9405 18.394 30.8805 18.5137 30.7988 18.6183C30.7172 18.7228 30.6156 18.8101 30.4999 18.875L16.4999 26.875C16.3488 26.9614 16.1778 27.0068 16.0037 27.0068C15.8296 27.0068 15.6586 26.9614 15.5074 26.875L1.49994 18.875C1.38545 18.8093 1.285 18.7218 1.20435 18.6173C1.1237 18.5128 1.06441 18.3935 1.02988 18.2661C0.995349 18.1387 0.986247 18.0057 1.00309 17.8748C1.01994 17.7439 1.06241 17.6176 1.12807 17.5031C1.19373 17.3886 1.2813 17.2882 1.38578 17.2075C1.49026 17.1269 1.6096 17.0676 1.73699 17.0331C1.99426 16.9633 2.26871 16.9986 2.49994 17.1312L15.9999 24.8487L29.4999 17.1312C29.6142 17.0643 29.7406 17.0207 29.8719 17.003C30.0032 16.9853 30.1366 16.9939 30.2645 17.0282C30.3925 17.0625 30.5123 17.1218 30.6171 17.2028C30.7219 17.2838 30.8095 17.3848 30.8749 17.5Z" fill="#397AC4"/>
</svg>
