<svg width="27" height="29" viewBox="0 0 27 29" fill="none" xmlns="http://www.w3.org/2000/svg">
<path d="M25.8638 19.7666C25.9958 19.9958 26.0317 20.268 25.9635 20.5236C25.8954 20.7792 25.7287 20.9974 25.5 21.1303L13.5 28.1303C13.3471 28.2195 13.1733 28.2665 12.9963 28.2665C12.8192 28.2665 12.6454 28.2195 12.4925 28.1303L0.4925 21.1303C0.267117 20.9949 0.104148 20.7761 0.0388751 20.5214C-0.0263974 20.2667 0.0112804 19.9965 0.143751 19.7694C0.276221 19.5423 0.492823 19.3764 0.746661 19.3078C1.0005 19.2392 1.27114 19.2734 1.5 19.4028L13 26.1091L24.5 19.4028C24.7292 19.2708 25.0014 19.2349 25.257 19.3031C25.5126 19.3712 25.7308 19.5379 25.8638 19.7666ZM24.5 13.4028L13 20.1091L1.5 13.4028C1.27231 13.2895 1.00997 13.2671 0.766382 13.3404C0.522796 13.4136 0.31627 13.5769 0.188841 13.797C0.061412 14.0172 0.0226569 14.2776 0.0804636 14.5253C0.13827 14.773 0.288294 14.9894 0.5 15.1303L12.5 22.1303C12.6529 22.2195 12.8267 22.2665 13.0037 22.2665C13.1808 22.2665 13.3546 22.2195 13.5075 22.1303L25.5075 15.1303C25.6228 15.0651 25.7239 14.9777 25.8051 14.8731C25.8863 14.7684 25.9459 14.6487 25.9804 14.5209C26.015 14.3931 26.0238 14.2596 26.0064 14.1284C25.9889 13.9971 25.9456 13.8706 25.8789 13.7562C25.8122 13.6418 25.7234 13.5418 25.6177 13.462C25.5121 13.3822 25.3916 13.3242 25.2633 13.2913C25.135 13.2584 25.0015 13.2514 24.8705 13.2705C24.7394 13.2896 24.6135 13.3346 24.5 13.4028ZM0 8.26659C0.000398802 8.09144 0.046794 7.91947 0.134542 7.76788C0.222291 7.6163 0.348314 7.49042 0.5 7.40284L12.5 0.402844C12.6529 0.313676 12.8267 0.266693 13.0037 0.266693C13.1808 0.266693 13.3546 0.313676 13.5075 0.402844L25.5075 7.40284C25.6585 7.49091 25.7837 7.61701 25.8707 7.76856C25.9578 7.92011 26.0036 8.09183 26.0036 8.26659C26.0036 8.44136 25.9578 8.61308 25.8707 8.76463C25.7837 8.91618 25.6585 9.04228 25.5075 9.13034L13.5075 16.1303C13.3546 16.2195 13.1808 16.2665 13.0037 16.2665C12.8267 16.2665 12.6529 16.2195 12.5 16.1303L0.5 9.13034C0.348314 9.04277 0.222291 8.91689 0.134542 8.7653C0.046794 8.61372 0.000398802 8.44174 0 8.26659ZM2.985 8.26659L13 14.1091L23.015 8.26659L13 2.42409L2.985 8.26659Z" fill="#397AC4"/>
</svg>
