<svg width="18" height="17" viewBox="0 0 18 17" fill="none" xmlns="http://www.w3.org/2000/svg">
<path d="M12.5672 6.44941C12.6253 6.50746 12.6714 6.57639 12.7029 6.65226C12.7343 6.72814 12.7505 6.80947 12.7505 6.8916C12.7505 6.97374 12.7343 7.05507 12.7029 7.13094C12.6714 7.20681 12.6253 7.27574 12.5672 7.33379L8.19219 11.7088C8.13415 11.7669 8.06522 11.813 7.98934 11.8445C7.91347 11.8759 7.83214 11.8921 7.75 11.8921C7.66787 11.8921 7.58654 11.8759 7.51067 11.8445C7.43479 11.813 7.36586 11.7669 7.30782 11.7088L5.43282 9.83379C5.31554 9.71651 5.24966 9.55745 5.24966 9.3916C5.24966 9.22575 5.31554 9.06669 5.43282 8.94941C5.55009 8.83214 5.70915 8.76625 5.875 8.76625C6.04086 8.76625 6.19992 8.83214 6.31719 8.94941L7.75 10.383L11.6828 6.44941C11.7409 6.3913 11.8098 6.3452 11.8857 6.31375C11.9615 6.2823 12.0429 6.26611 12.125 6.26611C12.2071 6.26611 12.2885 6.2823 12.3643 6.31375C12.4402 6.3452 12.5091 6.3913 12.5672 6.44941ZM17.125 8.7666C17.125 10.3736 16.6485 11.9445 15.7557 13.2806C14.8629 14.6168 13.594 15.6582 12.1093 16.2731C10.6247 16.8881 8.99099 17.049 7.4149 16.7355C5.8388 16.422 4.39106 15.6481 3.25476 14.5118C2.11846 13.3755 1.34463 11.9278 1.03112 10.3517C0.717618 8.77561 0.87852 7.14195 1.49348 5.6573C2.10844 4.17265 3.14985 2.9037 4.486 2.01091C5.82214 1.11812 7.39303 0.641602 9 0.641602C11.1542 0.643876 13.2195 1.50063 14.7427 3.02387C16.266 4.54711 17.1227 6.61242 17.125 8.7666ZM15.875 8.7666C15.875 7.40686 15.4718 6.07764 14.7164 4.94706C13.9609 3.81647 12.8872 2.93528 11.631 2.41493C10.3747 1.89458 8.99238 1.75843 7.65876 2.0237C6.32514 2.28898 5.10013 2.94376 4.13864 3.90524C3.17716 4.86673 2.52238 6.09174 2.2571 7.42536C1.99183 8.75898 2.12798 10.1413 2.64833 11.3976C3.16868 12.6538 4.04987 13.7275 5.18046 14.483C6.31105 15.2384 7.64026 15.6416 9 15.6416C10.8227 15.6395 12.5702 14.9145 13.8591 13.6257C15.1479 12.3368 15.8729 10.5893 15.875 8.7666Z" fill="#397AC4"/>
</svg>
