<svg width="32" height="33" viewBox="0 0 32 33" fill="none" xmlns="http://www.w3.org/2000/svg">
<path opacity="0.2" d="M28 10.2666L16 17.2666L4 10.2666L16 3.2666L28 10.2666Z" fill="#397AC4"/>
<path d="M28.8638 21.7666C28.9958 21.9958 29.0317 22.268 28.9635 22.5236C28.8954 22.7792 28.7287 22.9974 28.5 23.1303L16.5 30.1303C16.3471 30.2195 16.1733 30.2665 15.9963 30.2665C15.8192 30.2665 15.6454 30.2195 15.4925 30.1303L3.4925 23.1303C3.26712 22.9949 3.10415 22.7761 3.03888 22.5214C2.9736 22.2667 3.01128 21.9965 3.14375 21.7694C3.27622 21.5423 3.49282 21.3764 3.74666 21.3078C4.0005 21.2392 4.27114 21.2734 4.5 21.4028L16 28.1091L27.5 21.4028C27.7292 21.2708 28.0014 21.2349 28.257 21.3031C28.5126 21.3712 28.7308 21.5379 28.8638 21.7666ZM27.5 15.4028L16 22.1091L4.5 15.4028C4.27231 15.2895 4.00997 15.2671 3.76638 15.3404C3.5228 15.4136 3.31627 15.5769 3.18884 15.797C3.06141 16.0172 3.02266 16.2776 3.08046 16.5253C3.13827 16.773 3.28829 16.9894 3.5 17.1303L15.5 24.1303C15.6529 24.2195 15.8267 24.2665 16.0037 24.2665C16.1808 24.2665 16.3546 24.2195 16.5075 24.1303L28.5075 17.1303C28.6228 17.0651 28.7239 16.9777 28.8051 16.8731C28.8863 16.7684 28.9459 16.6487 28.9804 16.5209C29.015 16.3931 29.0238 16.2596 29.0064 16.1284C28.9889 15.9971 28.9456 15.8706 28.8789 15.7562C28.8122 15.6418 28.7234 15.5418 28.6177 15.462C28.5121 15.3822 28.3916 15.3242 28.2633 15.2913C28.135 15.2584 28.0015 15.2514 27.8705 15.2705C27.7394 15.2896 27.6135 15.3346 27.5 15.4028ZM3 10.2666C3.0004 10.0914 3.04679 9.91947 3.13454 9.76788C3.22229 9.6163 3.34831 9.49042 3.5 9.40284L15.5 2.40284C15.6529 2.31368 15.8267 2.26669 16.0037 2.26669C16.1808 2.26669 16.3546 2.31368 16.5075 2.40284L28.5075 9.40284C28.6585 9.49091 28.7837 9.61701 28.8707 9.76856C28.9578 9.92011 29.0036 10.0918 29.0036 10.2666C29.0036 10.4414 28.9578 10.6131 28.8707 10.7646C28.7837 10.9162 28.6585 11.0423 28.5075 11.1303L16.5075 18.1303C16.3546 18.2195 16.1808 18.2665 16.0037 18.2665C15.8267 18.2665 15.6529 18.2195 15.5 18.1303L3.5 11.1303C3.34831 11.0428 3.22229 10.9169 3.13454 10.7653C3.04679 10.6137 3.0004 10.4417 3 10.2666ZM5.985 10.2666L16 16.1091L26.015 10.2666L16 4.42409L5.985 10.2666Z" fill="#397AC4"/>
</svg>
