<svg width="32" height="33" viewBox="0 0 32 33" fill="none" xmlns="http://www.w3.org/2000/svg">
<path opacity="0.2" d="M30 13.2666L16 21.2666L2 13.2666L16 5.2666L30 13.2666Z" fill="#397AC4"/>
<path d="M1.5 14.1416L15.5 22.1416C15.6511 22.228 15.8222 22.2734 15.9963 22.2734C16.1703 22.2734 16.3414 22.228 16.4925 22.1416L30.4925 14.1416C30.6458 14.0542 30.7733 13.9278 30.8619 13.7752C30.9506 13.6226 30.9973 13.4493 30.9973 13.2728C30.9973 13.0964 30.9506 12.9231 30.8619 12.7705C30.7733 12.6179 30.6458 12.4915 30.4925 12.4041L16.4925 4.4041C16.3414 4.31772 16.1703 4.27228 15.9963 4.27228C15.8222 4.27228 15.6511 4.31772 15.5 4.4041L1.5 12.4041C1.3467 12.4915 1.21925 12.6179 1.1306 12.7705C1.04195 12.9231 0.995255 13.0964 0.995255 13.2728C0.995255 13.4493 1.04195 13.6226 1.1306 13.7752C1.21925 13.9278 1.3467 14.0542 1.5 14.1416ZM16 6.41785L27.9838 13.2666L16 20.1153L4.01625 13.2666L16 6.41785ZM30.875 17.7666C30.9417 17.8812 30.9849 18.008 31.0022 18.1395C31.0194 18.271 31.0103 18.4047 30.9754 18.5326C30.9405 18.6606 30.8805 18.7803 30.7989 18.8849C30.7173 18.9894 30.6157 19.0767 30.5 19.1416L16.5 27.1416C16.3489 27.228 16.1778 27.2734 16.0038 27.2734C15.8297 27.2734 15.6586 27.228 15.5075 27.1416L1.5 19.1416C1.38551 19.0759 1.28507 18.9884 1.20441 18.8839C1.12376 18.7794 1.06447 18.6601 1.02994 18.5327C0.99541 18.4053 0.986308 18.2723 1.00316 18.1414C1.02 18.0105 1.06247 17.8842 1.12813 17.7697C1.19379 17.6552 1.28136 17.5548 1.38584 17.4741C1.49032 17.3935 1.60966 17.3342 1.73705 17.2997C1.99433 17.2299 2.26877 17.2652 2.5 17.3978L16 25.1153L29.5 17.3978C29.6143 17.3309 29.7407 17.2873 29.872 17.2696C30.0032 17.2519 30.1367 17.2605 30.2646 17.2948C30.3925 17.3291 30.5123 17.3884 30.6171 17.4694C30.7219 17.5504 30.8096 17.6514 30.875 17.7666Z" fill="#397AC4"/>
</svg>
