<svg width="32" height="33" viewBox="0 0 32 33" fill="none" xmlns="http://www.w3.org/2000/svg">
<path opacity="0.2" d="M28 10.2666L16 17.2666L4 10.2666L16 3.2666L28 10.2666Z" fill="#397AC4"/>
<path d="M30 25.2666C30 25.5318 29.8946 25.7862 29.7071 25.9737C29.5196 26.1613 29.2652 26.2666 29 26.2666H27V28.2666C27 28.5318 26.8946 28.7862 26.7071 28.9737C26.5196 29.1613 26.2652 29.2666 26 29.2666C25.7348 29.2666 25.4804 29.1613 25.2929 28.9737C25.1054 28.7862 25 28.5318 25 28.2666V26.2666H23C22.7348 26.2666 22.4804 26.1613 22.2929 25.9737C22.1054 25.7862 22 25.5318 22 25.2666C22 25.0014 22.1054 24.7471 22.2929 24.5595C22.4804 24.372 22.7348 24.2666 23 24.2666H25V22.2666C25 22.0014 25.1054 21.7471 25.2929 21.5595C25.4804 21.372 25.7348 21.2666 26 21.2666C26.2652 21.2666 26.5196 21.372 26.7071 21.5595C26.8946 21.7471 27 22.0014 27 22.2666V24.2666H29C29.2652 24.2666 29.5196 24.372 29.7071 24.5595C29.8946 24.7471 30 25.0014 30 25.2666ZM27.5 15.4029L16 22.1091L4.5 15.4029C4.27231 15.2895 4.00997 15.2672 3.76638 15.3404C3.5228 15.4136 3.31627 15.5769 3.18884 15.7971C3.06141 16.0172 3.02266 16.2776 3.08046 16.5253C3.13827 16.773 3.28829 16.9894 3.5 17.1304L15.5 24.1304C15.6529 24.2195 15.8267 24.2665 16.0037 24.2665C16.1808 24.2665 16.3546 24.2195 16.5075 24.1304L28.5075 17.1304C28.6228 17.0652 28.7239 16.9777 28.8051 16.8731C28.8863 16.7685 28.9459 16.6488 28.9804 16.5209C29.015 16.3931 29.0238 16.2597 29.0064 16.1284C28.9889 15.9971 28.9456 15.8706 28.8789 15.7562C28.8122 15.6418 28.7234 15.5418 28.6177 15.462C28.5121 15.3822 28.3916 15.3242 28.2633 15.2913C28.135 15.2584 28.0015 15.2514 27.8705 15.2705C27.7394 15.2897 27.6135 15.3347 27.5 15.4029ZM3 10.2666C3.0004 10.0915 3.04679 9.9195 3.13454 9.76791C3.22229 9.61633 3.34831 9.49045 3.5 9.40287L15.5 2.40287C15.6529 2.31371 15.8267 2.26672 16.0037 2.26672C16.1808 2.26672 16.3546 2.31371 16.5075 2.40287L28.5075 9.40287C28.6585 9.49094 28.7837 9.61704 28.8707 9.76859C28.9578 9.92014 29.0036 10.0919 29.0036 10.2666C29.0036 10.4414 28.9578 10.6131 28.8707 10.7647C28.7837 10.9162 28.6585 11.0423 28.5075 11.1304L16.5075 18.1304C16.3546 18.2195 16.1808 18.2665 16.0037 18.2665C15.8267 18.2665 15.6529 18.2195 15.5 18.1304L3.5 11.1304C3.34831 11.0428 3.22229 10.9169 3.13454 10.7653C3.04679 10.6137 3.0004 10.4418 3 10.2666ZM5.985 10.2666L16 16.1091L26.015 10.2666L16 4.42412L5.985 10.2666ZM17.5 27.2366L16 28.1116L4.5 21.4029C4.27231 21.2895 4.00997 21.2672 3.76638 21.3404C3.5228 21.4136 3.31627 21.5769 3.18884 21.7971C3.06141 22.0172 3.02266 22.2776 3.08046 22.5253C3.13827 22.773 3.28829 22.9894 3.5 23.1304L15.5 30.1304C15.6529 30.2195 15.8267 30.2665 16.0037 30.2665C16.1808 30.2665 16.3546 30.2195 16.5075 30.1304L18.5075 28.9641C18.6228 28.8989 18.7239 28.8115 18.8051 28.7068C18.8863 28.6022 18.9459 28.4825 18.9804 28.3547C19.015 28.2268 19.0238 28.0934 19.0064 27.9621C18.9889 27.8309 18.9456 27.7044 18.8789 27.59C18.8122 27.4756 18.7234 27.3756 18.6177 27.2958C18.5121 27.216 18.3916 27.1579 18.2633 27.1251C18.135 27.0922 18.0015 27.0851 17.8705 27.1043C17.7394 27.1234 17.6135 27.1684 17.5 27.2366Z" fill="#397AC4"/>
</svg>
