<svg width="31" height="24" viewBox="0 0 31 24" fill="none" xmlns="http://www.w3.org/2000/svg">
<path d="M0.500004 10.1416L14.5 18.1416C14.6511 18.228 14.8222 18.2734 14.9963 18.2734C15.1703 18.2734 15.3414 18.228 15.4925 18.1416L29.4925 10.1416C29.6458 10.0542 29.7733 9.9278 29.8619 9.77522C29.9506 9.62264 29.9973 9.44931 29.9973 9.27285C29.9973 9.09638 29.9506 8.92306 29.8619 8.77048C29.7733 8.6179 29.6458 8.49149 29.4925 8.4041L15.4925 0.404098C15.3414 0.317716 15.1703 0.272278 14.9963 0.272278C14.8222 0.272278 14.6511 0.317716 14.5 0.404098L0.500004 8.4041C0.3467 8.49149 0.219252 8.6179 0.130602 8.77048C0.0419512 8.92306 -0.00474484 9.09638 -0.00474484 9.27285C-0.00474484 9.44931 0.0419512 9.62264 0.130602 9.77522C0.219252 9.9278 0.3467 10.0542 0.500004 10.1416ZM15 2.41785L26.9838 9.2666L15 16.1153L3.01625 9.2666L15 2.41785ZM29.875 13.7666C29.9417 13.8812 29.9849 14.008 30.0022 14.1395C30.0194 14.271 30.0103 14.4047 29.9754 14.5326C29.9405 14.6606 29.8805 14.7803 29.7989 14.8849C29.7173 14.9894 29.6157 15.0767 29.5 15.1416L15.5 23.1416C15.3489 23.228 15.1778 23.2734 15.0038 23.2734C14.8297 23.2734 14.6586 23.228 14.5075 23.1416L0.500004 15.1416C0.385508 15.0759 0.285066 14.9884 0.204412 14.8839C0.123759 14.7794 0.0644739 14.6601 0.0299421 14.5327C-0.00458964 14.4053 -0.0136919 14.2723 0.0031551 14.1414C0.0200021 14.0105 0.0624683 13.8842 0.128129 13.7697C0.19379 13.6552 0.28136 13.5548 0.385839 13.4741C0.490317 13.3935 0.609659 13.3342 0.737049 13.2997C0.994325 13.2299 1.26877 13.2652 1.5 13.3978L15 21.1153L28.5 13.3978C28.6143 13.3309 28.7407 13.2873 28.872 13.2696C29.0032 13.2519 29.1367 13.2605 29.2646 13.2948C29.3925 13.3291 29.5123 13.3884 29.6171 13.4694C29.7219 13.5504 29.8096 13.6514 29.875 13.7666Z" fill="#397AC4"/>
</svg>
